<svg width="888" height="754" viewBox="0 0 888 754" fill="none" xmlns="http://www.w3.org/2000/svg">
<path d="M584 182.5C540.333 230 454.8 352 462 460" stroke="url(#paint0_linear_16_226)"/>
<path d="M522.5 199.5C478.833 247 445.8 361.5 453 469.5" stroke="url(#paint1_linear_16_226)"/>
<path d="M471 198C452 264 436.5 435.5 436.5 489.5" stroke="url(#paint2_linear_16_226)"/>
<path d="M303.5 192C347.167 239.5 428.2 384.5 421 492.5" stroke="url(#paint3_linear_16_226)"/>
<path d="M365 192C408.667 239.5 437.2 394 430 502" stroke="url(#paint4_linear_16_226)"/>
<path d="M414 195C433.253 267.332 435 448.819 435 508" stroke="url(#paint5_linear_16_226)"/>
<ellipse cx="452" cy="589" rx="271" ry="165" fill="url(#paint6_radial_16_226)"/>
<circle cx="440" cy="538" r="90" fill="url(#paint7_linear_16_226)"/>
<g filter="url(#filter0_d_16_226)">
<path fill-rule="evenodd" clip-rule="evenodd" d="M478.508 497.891C478.508 500.14 476.685 501.963 474.435 501.963H406.436C404.187 501.963 402.364 500.14 402.364 497.891C402.364 495.641 404.187 493.818 406.436 493.818H474.435C476.685 493.818 478.508 495.641 478.508 497.891Z" fill="white"/>
<path fill-rule="evenodd" clip-rule="evenodd" d="M478.508 579.746C478.508 581.995 476.685 583.818 474.435 583.818H406.436C404.187 583.818 402.364 581.995 402.364 579.746V579.746C402.364 577.496 404.187 575.673 406.436 575.673H474.435C476.685 575.673 478.508 577.496 478.508 579.746V579.746Z" fill="white"/>
<path d="M449.002 497.891L417.592 537.866L449.002 580.698" stroke="white" stroke-width="8"/>
</g>
<path d="M440.5 457.5C562.105 457.5 672.179 472.55 751.835 496.872C791.666 509.034 823.863 523.505 846.091 539.552C868.331 555.606 880.5 573.168 880.5 591.5C880.5 609.832 868.331 627.394 846.091 643.448C823.863 659.495 791.666 673.966 751.835 686.128C672.179 710.45 562.105 725.5 440.5 725.5C318.895 725.5 208.821 710.45 129.165 686.128C89.3343 673.966 57.1374 659.495 34.9092 643.448C12.6694 627.394 0.5 609.832 0.5 591.5C0.5 573.168 12.6694 555.606 34.9092 539.552C57.1374 523.505 89.3343 509.034 129.165 496.872C208.821 472.55 318.895 457.5 440.5 457.5Z" stroke="url(#paint8_linear_16_226)"/>
<path d="M445 457.5C550.445 457.5 645.887 472.55 714.949 496.866C749.482 509.025 777.394 523.492 796.661 539.531C815.931 555.573 826.5 573.137 826.5 591.5C826.5 609.863 815.931 627.427 796.661 643.469C777.394 659.508 749.482 673.975 714.949 686.134C645.887 710.45 550.445 725.5 445 725.5C339.555 725.5 244.113 710.45 175.051 686.134C140.518 673.975 112.606 659.508 93.3389 643.469C74.0685 627.427 63.5 609.863 63.5 591.5C63.5 573.137 74.0685 555.573 93.3389 539.531C112.606 523.492 140.518 509.025 175.051 496.866C244.113 472.55 339.555 457.5 445 457.5Z" stroke="url(#paint9_linear_16_226)"/>
<path d="M455.5 457.5C551.414 457.5 638.225 472.548 701.039 496.86C732.448 509.017 757.832 523.481 775.354 539.516C792.877 555.55 802.5 573.118 802.5 591.5C802.5 609.882 792.877 627.45 775.354 643.484C757.832 659.519 732.448 673.983 701.039 686.14C638.225 710.452 551.414 725.5 455.5 725.5C359.586 725.5 272.775 710.452 209.961 686.14C178.552 673.983 153.168 659.519 135.646 643.484C118.123 627.45 108.5 609.882 108.5 591.5C108.5 573.118 118.123 555.55 135.646 539.516C153.168 523.481 178.552 509.017 209.961 496.86C272.775 472.548 359.586 457.5 455.5 457.5Z" stroke="url(#paint10_linear_16_226)"/>
<path d="M445 385.5C529.275 385.5 597.5 446.886 597.5 522.5C597.5 598.114 529.275 659.5 445 659.5C360.725 659.5 292.5 598.114 292.5 522.5C292.5 446.886 360.725 385.5 445 385.5Z" stroke="url(#paint11_linear_16_226)"/>
<path d="M444.5 476.5C485.162 476.5 521.951 485.664 548.556 500.454C575.177 515.254 591.5 535.62 591.5 558C591.5 580.38 575.177 600.746 548.556 615.546C521.951 630.336 485.162 639.5 444.5 639.5C403.838 639.5 367.049 630.336 340.444 615.546C313.823 600.746 297.5 580.38 297.5 558C297.5 535.62 313.823 515.254 340.444 500.454C367.049 485.664 403.838 476.5 444.5 476.5Z" stroke="url(#paint12_linear_16_226)"/>
<path d="M846.421 538.511C846.421 536.979 844.767 535.527 842.231 534.627C842.817 531.63 842.557 529.245 841.41 528.481C841.133 528.3 840.818 528.209 840.5 528.218V529.268C840.687 529.268 840.837 529.311 840.963 529.391C841.516 529.759 841.756 531.158 841.569 532.959C841.524 533.402 841.451 533.868 841.361 534.344C840.512 534.107 839.65 533.935 838.781 533.83C838.264 533.002 837.699 532.215 837.091 531.474C838.416 530.046 839.659 529.264 840.505 529.264V528.213C839.387 528.213 837.924 529.137 836.445 530.739C834.966 529.147 833.502 528.232 832.385 528.232V529.282C833.227 529.282 834.474 530.061 835.799 531.479C835.23 532.172 834.661 532.959 834.12 533.83C833.25 533.934 832.386 534.107 831.536 534.349C831.446 533.898 831.376 533.442 831.324 532.983C831.133 531.181 831.369 529.782 831.918 529.41C832.04 529.326 832.198 529.287 832.385 529.287V528.237C832.045 528.237 831.735 528.322 831.467 528.5C830.325 529.264 830.069 531.643 830.658 534.632C828.13 535.538 826.485 536.984 826.485 538.511C826.485 540.042 828.139 541.494 830.675 542.393C830.089 545.391 830.349 547.776 831.495 548.539C831.76 548.719 832.069 548.803 832.409 548.803C833.527 548.803 834.99 547.88 836.469 546.277C837.948 547.87 839.411 548.784 840.529 548.784C840.85 548.792 841.166 548.701 841.447 548.52C842.589 547.757 842.845 545.378 842.256 542.389C844.775 541.489 846.421 540.038 846.421 538.511ZM841.13 535.367C840.972 535.997 840.789 536.618 840.581 537.228C840.242 536.462 839.869 535.716 839.464 534.994C840.041 535.093 840.598 535.216 841.13 535.367H841.13ZM839.269 540.386C838.965 541.002 838.638 541.603 838.289 542.187C837.07 542.311 835.844 542.313 834.625 542.192C833.925 541.033 833.313 539.806 832.796 538.525C833.313 537.241 833.922 536.01 834.617 534.845C835.836 534.72 837.062 534.718 838.281 534.839C838.618 535.4 838.948 535.999 839.265 536.631C839.574 537.248 839.854 537.874 840.11 538.506C839.852 539.145 839.571 539.773 839.269 540.386ZM840.581 539.774C840.801 540.405 840.988 541.037 841.142 541.649C840.61 541.801 840.049 541.928 839.468 542.026C839.871 541.297 840.243 540.545 840.581 539.774ZM836.461 544.802C836.083 544.35 835.705 543.846 835.331 543.294C835.697 543.313 836.071 543.328 836.449 543.328C836.831 543.328 837.209 543.318 837.578 543.294C837.213 543.846 836.835 544.35 836.461 544.802ZM833.438 542.026C832.877 541.932 832.321 541.808 831.771 541.654C831.922 541.046 832.108 540.419 832.319 539.793C832.486 540.169 832.662 540.546 832.853 540.924C833.044 541.301 833.238 541.669 833.438 542.026ZM836.44 532.219C836.818 532.671 837.196 533.175 837.57 533.727C837.205 533.708 836.831 533.694 836.453 533.694C836.071 533.694 835.693 533.703 835.323 533.727C835.689 533.175 836.067 532.671 836.44 532.219ZM833.433 534.995C833.03 535.722 832.659 536.473 832.32 537.243C832.107 536.629 831.92 536.003 831.76 535.367C832.291 535.221 832.853 535.093 833.433 534.995ZM829.756 540.895C828.317 540.184 827.387 539.25 827.387 538.511C827.387 537.771 828.317 536.832 829.756 536.126C830.105 535.952 830.487 535.796 830.882 535.65C831.113 536.573 831.418 537.535 831.795 538.52C831.439 539.447 831.138 540.401 830.894 541.376C830.508 541.237 830.128 541.077 829.756 540.895ZM831.942 547.629C831.39 547.263 831.15 545.862 831.337 544.063C831.382 543.619 831.455 543.152 831.544 542.676C832.34 542.903 833.21 543.077 834.125 543.191C834.642 544.019 835.207 544.806 835.815 545.547C834.49 546.975 833.246 547.757 832.401 547.757C832.241 547.759 832.084 547.716 831.942 547.63V547.629ZM841.581 544.039C841.772 545.839 841.537 547.239 840.987 547.611C840.866 547.696 840.708 547.733 840.521 547.733C839.679 547.733 838.432 546.956 837.107 545.537C837.712 544.799 838.273 544.013 838.785 543.186C839.656 543.082 840.52 542.909 841.37 542.668C841.463 543.144 841.536 543.6 841.581 544.039ZM843.146 540.895C842.797 541.069 842.415 541.225 842.02 541.371C841.772 540.391 841.466 539.433 841.106 538.501C841.48 537.521 841.78 536.564 842.008 535.645C842.395 535.784 842.776 535.945 843.15 536.126C844.588 536.837 845.519 537.771 845.519 538.511C845.515 539.25 844.584 540.189 843.146 540.895Z" fill="url(#paint13_linear_16_226)"/>
<path d="M836.449 540.664C836.941 540.664 837.414 540.437 837.762 540.033C838.11 539.629 838.306 539.081 838.306 538.51C838.306 537.939 838.11 537.391 837.762 536.987C837.414 536.583 836.941 536.356 836.449 536.356C835.956 536.356 835.484 536.583 835.135 536.987C834.787 537.391 834.591 537.939 834.591 538.51C834.591 539.081 834.787 539.629 835.135 540.033C835.484 540.437 835.956 540.664 836.449 540.664Z" fill="url(#paint14_linear_16_226)"/>
<path d="M776.486 498.294H766.352C765.589 498.294 764.97 499.012 764.97 499.896V511.65C764.97 512.535 765.589 513.253 766.352 513.253H776.486C777.249 513.253 777.868 512.535 777.868 511.65V499.896C777.868 499.012 777.249 498.294 776.486 498.294ZM771.989 509.961C771.989 511.416 771.252 512.081 770.178 512.081C769.208 512.081 768.646 511.5 768.358 510.795L769.346 510.104C769.536 510.495 769.709 510.825 770.126 510.825C770.523 510.825 770.777 510.645 770.777 509.941V505.162H771.989V509.961ZM774.857 512.081C773.731 512.081 773.002 511.46 772.648 510.645L773.636 509.984C773.895 510.475 774.235 510.839 774.831 510.839C775.332 510.839 775.654 510.548 775.654 510.144C775.654 509.663 775.326 509.493 774.77 509.209L774.468 509.059C773.593 508.628 773.014 508.084 773.014 506.939C773.014 505.884 773.708 505.082 774.787 505.082C775.559 505.082 776.112 505.393 776.509 506.207L775.565 506.909C775.357 506.478 775.133 506.308 774.785 506.308C774.43 506.308 774.206 506.568 774.206 506.909C774.206 507.329 774.43 507.5 774.952 507.763L775.254 507.914C776.285 508.425 776.863 508.949 776.863 510.124C776.863 511.386 776.005 512.081 774.857 512.081Z" fill="url(#paint15_linear_16_226)"/>
<path d="M880.059 601.859C879.821 601.859 879.579 601.781 879.37 601.633L877.178 600.05C876.851 599.824 877.011 599.746 877.117 599.703C877.554 599.516 877.643 599.477 878.109 599.152C878.158 599.117 878.222 599.13 878.272 599.169L879.956 600.388C880.016 600.432 880.102 600.432 880.159 600.388L886.721 595.763C886.781 595.72 886.821 595.633 886.821 595.546V586.297C886.821 586.206 886.781 586.123 886.717 586.076L880.159 581.455C880.098 581.412 880.016 581.412 879.956 581.455L873.401 586.08C873.337 586.123 873.298 586.21 873.298 586.301V595.546C873.298 595.633 873.337 595.72 873.401 595.759L875.199 597.026C876.176 597.62 876.773 596.922 876.773 596.215V587.087C876.773 586.956 876.858 586.857 876.964 586.857H877.796C877.899 586.857 877.988 586.956 877.988 587.087V596.219C877.988 597.807 877.277 598.718 876.044 598.718C875.664 598.718 875.366 598.718 874.534 598.215L872.815 597.004C872.388 596.705 872.125 596.145 872.125 595.542V586.297C872.125 585.698 872.388 585.134 872.815 584.835L879.37 580.21C879.786 579.924 880.336 579.924 880.748 580.21L887.311 584.839C887.737 585.139 888 585.698 888 586.301V595.546C888 596.145 887.737 596.705 887.311 597.009L880.748 601.633C880.539 601.781 880.301 601.859 880.059 601.859ZM885.357 592.744C885.357 591.013 884.397 590.553 882.383 590.228C880.343 589.898 880.137 589.729 880.137 589.147C880.137 588.666 880.311 588.024 881.821 588.024C883.168 588.024 883.665 588.379 883.872 589.49C883.889 589.594 883.967 589.672 884.056 589.672H884.909C884.962 589.672 885.012 589.646 885.048 589.598C885.083 589.551 885.101 589.486 885.097 589.421C884.966 587.507 883.925 586.618 881.821 586.618C879.949 586.618 878.833 587.581 878.833 589.199C878.833 590.952 879.945 591.438 881.74 591.655C883.889 591.911 884.056 592.297 884.056 592.813C884.056 593.707 883.466 594.089 882.084 594.089C880.347 594.089 879.967 593.555 879.839 592.501C879.825 592.388 879.746 592.306 879.651 592.306H878.801C878.695 592.306 878.613 592.41 878.613 592.536C878.613 593.885 879.214 595.494 882.088 595.494C884.163 595.49 885.357 594.488 885.357 592.744Z" fill="url(#paint16_linear_16_226)"/>
<path fill-rule="evenodd" clip-rule="evenodd" d="M763.021 666.298C761.351 666.298 760.009 667.922 760.009 669.912C760.009 671.122 760.506 672.196 761.269 672.852C760.876 673.194 760.557 673.638 760.338 674.148C760.119 674.659 760.006 675.222 760.009 675.792C760.009 677.002 760.506 678.076 761.269 678.731C760.876 679.073 760.557 679.517 760.338 680.028C760.119 680.538 760.006 681.101 760.009 681.671C760.009 683.661 761.351 685.285 763.021 685.285C764.689 685.285 766.032 683.661 766.032 681.671V678.616C766.56 679.126 767.225 679.406 767.911 679.406C769.581 679.405 770.923 677.781 770.923 675.792C770.926 675.222 770.813 674.659 770.594 674.148C770.376 673.638 770.057 673.194 769.663 672.852C770.056 672.51 770.375 672.066 770.594 671.556C770.813 671.045 770.926 670.482 770.923 669.912C770.923 667.922 769.581 666.298 767.911 666.298H763.021ZM761.141 669.912C761.141 668.653 761.988 667.646 763.021 667.646H764.9V672.179H763.021C761.988 672.179 761.141 671.17 761.141 669.912ZM767.911 672.178H766.032V667.645H767.911C768.945 667.645 769.791 668.653 769.791 669.912C769.791 671.17 768.945 672.178 767.911 672.178ZM761.141 675.792C761.141 674.534 761.989 673.525 763.021 673.525H764.901V678.058H763.021C761.987 678.058 761.141 677.05 761.141 675.792H761.141ZM766.032 675.792C766.032 674.534 766.879 673.525 767.912 673.525C768.945 673.525 769.792 674.533 769.792 675.792C769.792 677.05 768.945 678.058 767.912 678.058C766.879 678.058 766.033 677.05 766.033 675.792H766.032ZM761.141 681.671C761.141 680.413 761.989 679.405 763.021 679.405H764.901V681.671C764.901 682.93 764.055 683.938 763.021 683.938C761.989 683.938 761.141 682.93 761.141 681.671Z" fill="url(#paint17_linear_16_226)"/>
<path d="M830.785 599.557H821.778C820.542 599.557 819.54 600.719 819.54 602.153V612.208C819.54 613.642 820.542 614.805 821.778 614.805H830.785C832.022 614.805 833.024 613.642 833.024 612.208V602.153C833.024 600.719 832.022 599.557 830.785 599.557Z" fill="url(#paint18_linear_16_226)"/>
<path d="M826.628 603.567L824.946 606.788L826.746 610.208C826.757 610.232 826.761 610.26 826.755 610.287C826.752 610.298 826.746 610.301 826.737 610.302L826.727 610.301L826.714 610.301C826.707 610.301 826.7 610.301 826.692 610.303H825.394L825.368 610.303C825.298 610.3 825.248 610.289 825.217 610.229C825.097 609.958 824.976 609.687 824.855 609.416C824.747 609.175 824.636 608.935 824.521 608.697L824.471 608.593C824.334 608.311 824.2 608.028 824.068 607.743H824.059C823.938 608.025 823.813 608.305 823.684 608.582C823.554 608.862 823.426 609.14 823.299 609.416C823.173 609.693 823.043 609.967 822.91 610.24C822.889 610.295 822.854 610.307 822.804 610.309L822.784 610.309H821.545L821.539 610.309L821.522 610.311C821.512 610.312 821.506 610.31 821.504 610.292C821.5 610.267 821.505 610.241 821.517 610.219L823.263 606.893L821.563 603.557C821.545 603.529 821.542 603.507 821.554 603.489C821.56 603.48 821.569 603.473 821.578 603.468C821.587 603.464 821.598 603.462 821.608 603.463H822.883C822.911 603.461 822.939 603.466 822.965 603.478C822.986 603.493 823.005 603.512 823.019 603.536C823.128 603.816 823.248 604.096 823.381 604.375C823.513 604.653 823.647 604.93 823.783 605.204C823.918 605.475 824.043 605.751 824.159 606.033H824.168C824.286 605.751 824.408 605.471 824.534 605.194C824.658 604.921 824.784 604.646 824.914 604.37C825.042 604.097 825.167 603.823 825.289 603.547C825.296 603.521 825.309 603.497 825.326 603.478C825.348 603.465 825.373 603.46 825.398 603.463H826.583C826.594 603.46 826.605 603.461 826.616 603.466C826.626 603.471 826.635 603.48 826.64 603.491C826.646 603.502 826.648 603.515 826.647 603.528C826.646 603.541 826.641 603.553 826.633 603.562L826.628 603.568L826.628 603.567ZM829.287 610.438L829.224 610.439C828.808 610.447 828.395 610.346 828.017 610.145C827.664 609.956 827.369 609.647 827.171 609.259C826.971 608.874 826.869 608.395 826.864 607.821L826.863 607.774C826.86 607.293 826.966 606.819 827.171 606.4C827.376 605.986 827.675 605.644 828.035 605.413L828.066 605.393C828.458 605.141 828.932 605.015 829.487 605.015L829.511 605.016L829.539 605.017L829.57 605.018L829.604 605.021L829.662 605.025L829.728 605.031L829.776 605.036V602.97C829.776 602.921 829.794 602.896 829.83 602.896H830.97C830.977 602.895 830.985 602.896 830.992 602.898C830.999 602.901 831.006 602.906 831.011 602.912C831.016 602.918 831.02 602.925 831.022 602.934C831.025 602.942 831.025 602.95 831.024 602.959V609.159C831.024 609.263 831.028 609.376 831.035 609.496L831.052 609.768L831.061 609.925C831.062 609.947 831.057 609.969 831.047 609.987C831.038 610.006 831.023 610.021 831.006 610.03C830.712 610.172 830.406 610.278 830.093 610.345C829.827 610.402 829.557 610.433 829.287 610.438ZM829.776 609.138V606.274C829.727 606.259 829.677 606.248 829.627 606.243C829.565 606.236 829.503 606.232 829.441 606.232C829.222 606.23 829.005 606.287 828.808 606.4C828.617 606.511 828.453 606.677 828.333 606.883C828.214 607.085 828.152 607.35 828.148 607.676L828.148 607.712C828.143 607.94 828.176 608.168 828.243 608.383C828.297 608.556 828.384 608.714 828.496 608.845C828.604 608.965 828.734 609.055 828.876 609.107C829.026 609.163 829.184 609.192 829.342 609.191C829.426 609.191 829.505 609.187 829.577 609.18C829.635 609.175 829.692 609.164 829.748 609.147L829.776 609.138Z" fill="black"/>
<path d="M717.964 511.569C719.025 510.862 720.082 510.15 721.146 509.451C722.156 508.788 723.344 509.4 723.573 510.691C723.706 511.438 723.418 512.245 722.837 512.638C720.93 513.927 719.021 515.21 717.102 516.474C716.508 516.865 715.896 516.793 715.355 516.314C714.805 515.827 714.632 515.156 714.761 514.375C714.908 513.78 715.245 513.382 715.705 513.085C716.464 512.593 717.212 512.075 717.964 511.569Z" fill="url(#paint19_linear_16_226)"/>
<path d="M718.743 511.056C717.685 510.344 716.625 509.638 715.571 508.919C714.57 508.236 714.433 506.737 715.283 505.861C715.775 505.355 716.521 505.24 717.105 505.627C719.021 506.898 720.934 508.174 722.837 509.469C723.426 509.87 723.678 510.521 723.591 511.304C723.502 512.099 723.088 512.609 722.44 512.87C721.922 513.02 721.457 512.88 721.005 512.567C720.258 512.05 719.498 511.558 718.743 511.056Z" fill="url(#paint20_linear_16_226)"/>
<path d="M709.103 510.552C708.425 510.999 707.745 511.446 707.067 511.894C706.671 512.157 706.279 512.428 705.88 512.686C705.077 513.206 704.123 512.901 703.667 511.985C703.233 511.111 703.482 509.978 704.256 509.455C706.147 508.174 708.043 506.903 709.946 505.646C710.53 505.261 711.136 505.31 711.675 505.77C712.245 506.257 712.431 506.941 712.304 507.743C712.224 507.938 712.177 508.165 712.058 508.318C711.865 508.567 711.645 508.805 711.401 508.98C710.644 509.521 709.87 510.03 709.103 510.552Z" fill="url(#paint21_linear_16_226)"/>
<path d="M708.325 511.053C708.998 511.511 709.671 511.97 710.345 512.427C710.739 512.694 711.138 512.952 711.53 513.223C712.32 513.77 712.569 514.881 712.113 515.796C711.678 516.67 710.707 516.986 709.929 516.47C708.028 515.211 706.13 513.942 704.24 512.659C703.661 512.265 703.394 511.633 703.468 510.86C703.547 510.045 703.965 509.516 704.628 509.243C704.812 509.226 705.006 509.159 705.18 509.202C705.462 509.272 705.75 509.373 706.003 509.532C706.785 510.021 707.552 510.543 708.325 511.053Z" fill="url(#paint22_linear_16_226)"/>
<path fill-rule="evenodd" clip-rule="evenodd" d="M126.007 569.638C122.171 569.638 119.061 573.503 119.061 578.269C119.061 583.035 122.171 586.899 126.007 586.899C129.842 586.899 132.952 583.035 132.952 578.269C132.952 573.503 129.842 569.638 126.007 569.638ZM126.088 583.316C123.849 583.316 122.036 581.058 122.036 578.269C122.036 575.48 123.849 573.222 126.088 573.222C127.182 573.222 128.096 573.723 128.798 574.537L127.655 575.96V575.957C127.23 575.452 126.69 575.193 126.088 575.193C124.751 575.193 123.664 576.6 123.664 578.266C123.664 579.931 124.751 581.342 126.088 581.342C127.301 581.342 128.126 580.477 128.296 579.291H126.088V577.322H129.899C129.95 577.66 129.977 578.013 129.977 578.382C129.977 581.266 128.428 583.316 126.088 583.316Z" fill="url(#paint23_linear_16_226)"/>
<path d="M30.9676 637.408H32.8421V638.333H31.7514V639.259H32.8421V640.184H30.9676V637.408ZM33.2166 637.408H35.0919V638.213H34.0012V638.374H35.0919V640.224H33.2166V639.38H34.3073V639.218H33.2166V637.408ZM35.4671 637.408H37.3409V638.213H36.2502V638.374H37.3409V640.224H35.4671V639.38H36.5578V639.218H35.4671V637.408Z" fill="url(#paint24_linear_16_226)"/>
<path fill-rule="evenodd" clip-rule="evenodd" d="M34.2237 657.471L29.2478 655.869L27.781 641.455H40.6793L39.2132 655.868L34.2237 657.471ZM30.681 647.98L30.8178 649.748H36.104L35.927 652.04L34.2259 652.573H34.2244L32.5262 652.041L32.4172 650.632H30.8859L31.0995 653.408L34.2237 654.413L37.353 653.408L37.7342 648.454L37.7715 647.98L38.0466 644.401H30.4065L30.5455 646.17H36.3756L36.2366 647.98H30.681Z" fill="url(#paint25_linear_16_226)"/>
<path d="M186.034 478.203H196.948V491.5H186.034V478.203ZM185.537 492.122H197.444V477.581H185.537V492.122ZM193.336 482.763C193.336 482.714 193.351 482.689 193.395 482.689H194.174C194.214 482.689 194.234 482.707 194.234 482.763V487.666C194.234 487.716 194.224 487.741 194.174 487.741H193.406C193.356 487.741 193.341 487.71 193.341 487.66V482.763H193.336H193.336ZM193.282 481.353C193.282 481.185 193.335 481.024 193.43 480.905C193.525 480.786 193.653 480.719 193.788 480.719C193.922 480.719 194.05 480.786 194.145 480.905C194.24 481.024 194.294 481.185 194.294 481.353C194.298 481.439 194.288 481.525 194.264 481.606C194.24 481.686 194.202 481.759 194.153 481.819C194.104 481.88 194.045 481.926 193.98 481.955C193.915 481.984 193.846 481.995 193.778 481.987C193.711 481.992 193.643 481.979 193.581 481.949C193.518 481.919 193.461 481.872 193.414 481.812C193.367 481.752 193.331 481.68 193.308 481.6C193.286 481.521 193.277 481.437 193.282 481.353H193.282ZM191.049 484.808C190.91 484.116 190.581 482.615 190.459 481.888H190.449C190.345 482.615 190.082 483.845 189.874 484.808H191.049ZM189.67 485.815L189.278 487.679C189.268 487.729 189.253 487.741 189.204 487.741H188.475C188.426 487.741 188.416 487.723 188.426 487.648L189.834 481.47C189.869 481.301 189.885 481.128 189.884 480.954C189.884 480.91 189.899 480.892 189.924 480.892H190.965C191 480.892 191.015 480.904 191.025 480.954L192.602 487.659C192.612 487.708 192.602 487.74 192.563 487.74H191.739C191.7 487.74 191.675 487.727 191.665 487.686L191.258 485.816H189.671L189.67 485.815Z" fill="url(#paint26_linear_16_226)"/>
<path fill-rule="evenodd" clip-rule="evenodd" d="M81.3586 515.636C81.3586 515.31 81.4685 514.996 81.6639 514.765C81.8594 514.534 82.1245 514.404 82.4009 514.404H92.7909C92.9279 514.404 93.0636 514.436 93.1902 514.498C93.3168 514.559 93.4319 514.65 93.5288 514.765C93.6257 514.879 93.7026 515.015 93.755 515.165C93.8074 515.314 93.8344 515.474 93.8343 515.636V527.918C93.8345 528.08 93.8076 528.241 93.7552 528.39C93.7029 528.54 93.6261 528.676 93.5292 528.791C93.4324 528.905 93.3174 528.996 93.1908 529.058C93.0642 529.12 92.9285 529.152 92.7915 529.152H82.4009C82.264 529.152 82.1284 529.12 82.0019 529.058C81.8754 528.996 81.7605 528.905 81.6637 528.791C81.5669 528.676 81.4902 528.54 81.4378 528.391C81.3855 528.241 81.3586 528.081 81.3586 527.919V515.636ZM86.2967 520.027H87.9861V521.03C88.2299 520.453 88.8537 519.935 89.7911 519.935C91.5881 519.935 92.014 521.083 92.014 523.19V527.092H90.1954V523.67C90.1954 522.47 89.9515 521.793 89.3323 521.793C88.4732 521.793 88.1159 522.523 88.1159 523.67V527.092H86.2967V520.027ZM83.1778 527.001H84.997V519.935H83.1778V527V527.001ZM85.2573 517.63C85.2607 517.814 85.233 517.997 85.1758 518.168C85.1185 518.34 85.0329 518.496 84.924 518.627C84.815 518.759 84.6849 518.864 84.5413 518.935C84.3977 519.007 84.2435 519.043 84.0877 519.043C83.9319 519.043 83.7777 519.007 83.6341 518.935C83.4905 518.864 83.3604 518.759 83.2514 518.627C83.1425 518.496 83.0569 518.34 82.9996 518.168C82.9424 517.997 82.9147 517.814 82.9181 517.63C82.9248 517.269 83.051 516.925 83.2696 516.672C83.4882 516.419 83.7819 516.278 84.0877 516.278C84.3935 516.278 84.6872 516.419 84.9058 516.672C85.1244 516.925 85.2506 517.269 85.2573 517.63Z" fill="url(#paint27_linear_16_226)"/>
<path d="M139.653 646.737L141.119 649.101L148.543 646.737M131.939 665.148L135.955 660.636L133.539 657.655M139.044 646.737L136.898 648.959L140.508 649.114M130.701 646.738L131.47 648.554L135.72 648.857M132.975 656.152L136.114 649.424L126.999 648.856M133.34 656.577L136.305 660.237L139.575 656.554L140.59 649.692L136.605 649.457L133.34 656.577Z" fill="url(#paint28_linear_16_226)"/>
<defs>
<filter id="filter0_d_16_226" x="388.364" y="480.818" width="104.144" height="118" filterUnits="userSpaceOnUse" color-interpolation-filters="sRGB">
<feFlood flood-opacity="0" result="BackgroundImageFix"/>
<feColorMatrix in="SourceAlpha" type="matrix" values="0 0 0 0 0 0 0 0 0 0 0 0 0 0 0 0 0 0 127 0" result="hardAlpha"/>
<feOffset dy="1"/>
<feGaussianBlur stdDeviation="7"/>
<feComposite in2="hardAlpha" operator="out"/>
<feColorMatrix type="matrix" values="0 0 0 0 1 0 0 0 0 1 0 0 0 0 1 0 0 0 0.55 0"/>
<feBlend mode="normal" in2="BackgroundImageFix" result="effect1_dropShadow_16_226"/>
<feBlend mode="normal" in="SourceGraphic" in2="effect1_dropShadow_16_226" result="shape"/>
</filter>
<linearGradient id="paint0_linear_16_226" x1="522.786" y1="182.5" x2="522.786" y2="460" gradientUnits="userSpaceOnUse">
<stop stop-color="#3D1768"/>
<stop offset="1" stop-color="#3D1768" stop-opacity="0"/>
</linearGradient>
<linearGradient id="paint1_linear_16_226" x1="487.256" y1="199.5" x2="487.256" y2="469.5" gradientUnits="userSpaceOnUse">
<stop stop-color="#3D1768"/>
<stop offset="1" stop-color="#3D1768" stop-opacity="0"/>
</linearGradient>
<linearGradient id="paint2_linear_16_226" x1="445.75" y1="215" x2="445.75" y2="486" gradientUnits="userSpaceOnUse">
<stop stop-color="#3D1768"/>
<stop offset="1" stop-color="#3D1768" stop-opacity="0"/>
</linearGradient>
<linearGradient id="paint3_linear_16_226" x1="367.252" y1="217" x2="367.252" y2="492.5" gradientUnits="userSpaceOnUse">
<stop stop-color="#3D1768"/>
<stop offset="1" stop-color="#3D1768" stop-opacity="0"/>
</linearGradient>
<linearGradient id="paint4_linear_16_226" x1="401.423" y1="215" x2="401.423" y2="502" gradientUnits="userSpaceOnUse">
<stop stop-color="#3D1768"/>
<stop offset="1" stop-color="#3D1768" stop-opacity="0"/>
</linearGradient>
<linearGradient id="paint5_linear_16_226" x1="437" y1="221" x2="437" y2="518" gradientUnits="userSpaceOnUse">
<stop stop-color="#3D1768"/>
<stop offset="1" stop-color="#3D1768" stop-opacity="0"/>
</linearGradient>
<radialGradient id="paint6_radial_16_226" cx="0" cy="0" r="1" gradientUnits="userSpaceOnUse" gradientTransform="translate(452 589) rotate(90) scale(165 271)">
<stop stop-color="#763CAC"/>
<stop offset="1" stop-color="#320F85" stop-opacity="0"/>
</radialGradient>
<linearGradient id="paint7_linear_16_226" x1="440" y1="448" x2="440" y2="628" gradientUnits="userSpaceOnUse">
<stop stop-color="#301080" stop-opacity="0.6"/>
<stop offset="1" stop-color="#7840AD" stop-opacity="0.36"/>
</linearGradient>
<linearGradient id="paint8_linear_16_226" x1="440.5" y1="457" x2="440.5" y2="726" gradientUnits="userSpaceOnUse">
<stop stop-opacity="0"/>
<stop offset="0.479167" stop-color="#763CAC"/>
</linearGradient>
<linearGradient id="paint9_linear_16_226" x1="445" y1="457" x2="445" y2="726" gradientUnits="userSpaceOnUse">
<stop stop-opacity="0"/>
<stop offset="0.479167" stop-color="#763CAC"/>
</linearGradient>
<linearGradient id="paint10_linear_16_226" x1="455.5" y1="457" x2="455.5" y2="726" gradientUnits="userSpaceOnUse">
<stop stop-opacity="0"/>
<stop offset="0.479167" stop-color="#763CAC"/>
</linearGradient>
<linearGradient id="paint11_linear_16_226" x1="445" y1="385" x2="445" y2="660" gradientUnits="userSpaceOnUse">
<stop offset="0.197917" stop-opacity="0"/>
<stop offset="1" stop-color="#763CAC"/>
</linearGradient>
<linearGradient id="paint12_linear_16_226" x1="444.5" y1="476" x2="444.5" y2="640" gradientUnits="userSpaceOnUse">
<stop offset="0.197917" stop-opacity="0"/>
<stop offset="1" stop-color="#763CAC"/>
</linearGradient>
<linearGradient id="paint13_linear_16_226" x1="836.453" y1="528.213" x2="836.453" y2="548.803" gradientUnits="userSpaceOnUse">
<stop stop-color="#693B93" stop-opacity="0.53"/>
<stop offset="1" stop-color="#693B93"/>
</linearGradient>
<linearGradient id="paint14_linear_16_226" x1="836.449" y1="536.356" x2="836.449" y2="540.664" gradientUnits="userSpaceOnUse">
<stop stop-color="#693B93" stop-opacity="0.53"/>
<stop offset="1" stop-color="#693B93"/>
</linearGradient>
<linearGradient id="paint15_linear_16_226" x1="771.419" y1="498.294" x2="771.419" y2="513.253" gradientUnits="userSpaceOnUse">
<stop stop-color="#693B93" stop-opacity="0.53"/>
<stop offset="1" stop-color="#693B93"/>
</linearGradient>
<linearGradient id="paint16_linear_16_226" x1="880.063" y1="579.995" x2="880.063" y2="601.859" gradientUnits="userSpaceOnUse">
<stop stop-color="#693B93" stop-opacity="0.53"/>
<stop offset="1" stop-color="#693B93"/>
</linearGradient>
<linearGradient id="paint17_linear_16_226" x1="765.466" y1="666.298" x2="765.466" y2="685.285" gradientUnits="userSpaceOnUse">
<stop stop-color="#693B93" stop-opacity="0.53"/>
<stop offset="1" stop-color="#693B93"/>
</linearGradient>
<linearGradient id="paint18_linear_16_226" x1="826.282" y1="599.557" x2="826.282" y2="614.805" gradientUnits="userSpaceOnUse">
<stop stop-color="#693B93" stop-opacity="0.53"/>
<stop offset="1" stop-color="#693B93"/>
</linearGradient>
<linearGradient id="paint19_linear_16_226" x1="719.163" y1="509.181" x2="719.163" y2="516.726" gradientUnits="userSpaceOnUse">
<stop stop-color="#693B93" stop-opacity="0.53"/>
<stop offset="1" stop-color="#693B93"/>
</linearGradient>
<linearGradient id="paint20_linear_16_226" x1="719.166" y1="505.396" x2="719.166" y2="512.93" gradientUnits="userSpaceOnUse">
<stop stop-color="#693B93" stop-opacity="0.53"/>
<stop offset="1" stop-color="#693B93"/>
</linearGradient>
<linearGradient id="paint21_linear_16_226" x1="707.898" y1="505.388" x2="707.898" y2="512.939" gradientUnits="userSpaceOnUse">
<stop stop-color="#693B93" stop-opacity="0.53"/>
<stop offset="1" stop-color="#693B93"/>
</linearGradient>
<linearGradient id="paint22_linear_16_226" x1="707.898" y1="509.188" x2="707.898" y2="516.719" gradientUnits="userSpaceOnUse">
<stop stop-color="#693B93" stop-opacity="0.53"/>
<stop offset="1" stop-color="#693B93"/>
</linearGradient>
<linearGradient id="paint23_linear_16_226" x1="126.007" y1="569.638" x2="126.007" y2="586.899" gradientUnits="userSpaceOnUse">
<stop stop-color="#693B93" stop-opacity="0.53"/>
<stop offset="1" stop-color="#693B93"/>
</linearGradient>
<linearGradient id="paint24_linear_16_226" x1="34.1542" y1="637.408" x2="34.1542" y2="640.224" gradientUnits="userSpaceOnUse">
<stop stop-color="#693B93" stop-opacity="0.53"/>
<stop offset="1" stop-color="#693B93"/>
</linearGradient>
<linearGradient id="paint25_linear_16_226" x1="34.2302" y1="641.455" x2="34.2302" y2="657.471" gradientUnits="userSpaceOnUse">
<stop stop-color="#693B93" stop-opacity="0.53"/>
<stop offset="1" stop-color="#693B93"/>
</linearGradient>
<linearGradient id="paint26_linear_16_226" x1="191.49" y1="477.581" x2="191.49" y2="492.122" gradientUnits="userSpaceOnUse">
<stop stop-color="#693B93" stop-opacity="0.53"/>
<stop offset="1" stop-color="#693B93"/>
</linearGradient>
<linearGradient id="paint27_linear_16_226" x1="87.5965" y1="514.404" x2="87.5965" y2="529.152" gradientUnits="userSpaceOnUse">
<stop stop-color="#693B93" stop-opacity="0.53"/>
<stop offset="1" stop-color="#693B93"/>
</linearGradient>
<linearGradient id="paint28_linear_16_226" x1="137.771" y1="646.737" x2="137.771" y2="665.148" gradientUnits="userSpaceOnUse">
<stop stop-color="#693B93" stop-opacity="0.53"/>
<stop offset="1" stop-color="#693B93"/>
</linearGradient>
</defs>
</svg>
